<?xml version="1.0" standalone="no"?><!-- Generator: Gravit.io --><svg xmlns="http://www.w3.org/2000/svg" xmlns:xlink="http://www.w3.org/1999/xlink" style="isolation:isolate" viewBox="0 0 1700 768" width="1700" height="768"><defs><clipPath id="_clipPath_QrHSA8njxRpPjw4UOaV85dSiaIGE3ejS"><rect width="1700" height="768"/></clipPath></defs><g clip-path="url(#_clipPath_QrHSA8njxRpPjw4UOaV85dSiaIGE3ejS)"><clipPath id="_clipPath_TXGVxDn7x99Zd8kD2QzIWabsURIkk6Rk"><rect x="0" y="0" width="1892" height="768" transform="matrix(1,0,0,1,0,0)" fill="rgb(255,255,255)"/></clipPath><g clip-path="url(#_clipPath_TXGVxDn7x99Zd8kD2QzIWabsURIkk6Rk)"><g id="Group"><rect x="0" y="-3" width="2012.392" height="774" transform="matrix(1,0,0,1,0,0)" fill="rgb(229,229,229)"/><line x1="666.19" y1="149.5" x2="666.19" y2="618.5" vector-effect="non-scaling-stroke" stroke-width="8" stroke="rgb(23,23,23)" stroke-opacity="100" stroke-linejoin="miter" stroke-linecap="square" stroke-miterlimit="3"/><g id="Group"><g transform="matrix(1.382,0,0,1,91.264,243)"><text transform="matrix(1,0,0,1,0.24,71.396)" style="font-family:&quot;Rammetto One&quot;;font-weight:400;font-size:60px;font-style:normal;fill:#2E2E2E;stroke:none;">SUBARNA</text></g></g><g id="Group"><g transform="matrix(1.382,0,0,1,319.33,342.512)"><text transform="matrix(1,0,0,1,0,71.396)" style="font-family:&quot;Rammetto One&quot;;font-weight:400;font-size:60px;font-style:normal;fill:#418FAA;stroke:none;">SAHA</text></g></g><line x1="645.458" y1="149.5" x2="645.458" y2="618.5" vector-effect="non-scaling-stroke" stroke-width="8" stroke="rgb(65,143,170)" stroke-opacity="100" stroke-linejoin="miter" stroke-linecap="square" stroke-miterlimit="3"/><g id="Group"><g transform="matrix(1.382,0,0,1,186.985,451)"><text transform="matrix(1,0,0,1,1.811,34.682)" style="font-family:&quot;Radley&quot;;font-weight:400;font-size:36px;font-style:normal;fill:#2E2E2E;stroke:none;">WEB DEVELOPER</text></g><g transform="matrix(1.382,0,0,1,149.562,496.492)"><text transform="matrix(1,0,0,1,0,23.121)" style="font-family:&quot;Radley&quot;;font-weight:400;font-size:24px;font-style:normal;fill:#2E2E2E;stroke:none;">TECHNOLOGY ENTHUSIAST</text></g></g><g id="Group"><g transform="matrix(1.382,0,0,1,688.305,147)"><text transform="matrix(1,0,0,1,0,31.17)" style="font-family:&quot;PT Serif&quot;;font-weight:400;font-size:30px;font-style:normal;fill:#2E2E2E;stroke:none;"># HTML</text></g><g transform="matrix(1.382,0,0,1,688.305,200.663)"><text transform="matrix(1,0,0,1,0,31.17)" style="font-family:&quot;PT Serif&quot;;font-weight:400;font-size:30px;font-style:normal;fill:#2E2E2E;stroke:none;"># CSS</text></g><g transform="matrix(1.382,0,0,1,688.305,254.325)"><text transform="matrix(1,0,0,1,0,31.17)" style="font-family:&quot;PT Serif&quot;;font-weight:400;font-size:30px;font-style:normal;fill:#2E2E2E;stroke:none;"># BOOTSTRAP</text></g><g transform="matrix(1.382,0,0,1,688.305,307.988)"><text transform="matrix(1,0,0,1,0,31.17)" style="font-family:&quot;PT Serif&quot;;font-weight:400;font-size:30px;font-style:normal;fill:#2E2E2E;stroke:none;"># JAVASCRIPT</text></g><g transform="matrix(1.382,0,0,1,688.305,361.65)"><text transform="matrix(1,0,0,1,0,31.17)" style="font-family:&quot;PT Serif&quot;;font-weight:400;font-size:30px;font-style:normal;fill:#2E2E2E;stroke:none;"># JQUERY</text></g><g transform="matrix(1.382,0,0,1,688.305,415.313)"><text transform="matrix(1,0,0,1,0,31.17)" style="font-family:&quot;PT Serif&quot;;font-weight:400;font-size:30px;font-style:normal;fill:#2E2E2E;stroke:none;"># APIs/JSON</text></g><g transform="matrix(1.382,0,0,1,688.305,468.975)"><text transform="matrix(1,0,0,1,0,31.17)" style="font-family:&quot;PT Serif&quot;;font-weight:400;font-size:30px;font-style:normal;fill:#2E2E2E;stroke:none;"># ANGULAR 2+</text></g><g transform="matrix(1.382,0,0,1,688.305,522.638)"><text transform="matrix(1,0,0,1,0,31.17)" style="font-family:&quot;PT Serif&quot;;font-weight:400;font-size:30px;font-style:normal;fill:#2E2E2E;stroke:none;"># JAVA,C</text></g><g transform="matrix(1.382,0,0,1,688.305,576.3)"><text transform="matrix(1,0,0,1,0,31.17)" style="font-family:&quot;PT Serif&quot;;font-weight:400;font-size:30px;font-style:normal;fill:#2E2E2E;stroke:none;"># GIT</text></g></g><g id="email"><g id="Group"><path d=" M 1200.498 262.158 C 1200.147 262.158 1199.796 262.003 1199.578 261.717 C 1199.418 261.504 1199.361 261.241 1199.422 260.99 C 1199.481 260.738 1199.654 260.519 1199.899 260.382 L 1201.36 259.54 C 1201.871 259.254 1202.543 259.371 1202.863 259.825 C 1203.199 260.266 1203.053 260.875 1202.543 261.16 L 1201.082 262.003 C 1200.906 262.106 1200.702 262.158 1200.498 262.158 Z  M 1211.945 251.437 L 1168.111 251.437 C 1165.717 251.437 1163.76 253.175 1163.76 255.301 L 1163.76 278.699 C 1163.76 280.825 1165.717 282.563 1168.111 282.563 L 1211.945 282.563 C 1214.341 282.563 1216.298 280.825 1216.298 278.699 L 1216.298 255.301 C 1216.298 253.175 1214.354 251.437 1211.945 251.437 L 1211.945 251.437 Z  M 1214.121 278.699 C 1214.121 279.762 1213.144 280.631 1211.945 280.631 L 1168.111 280.631 C 1166.914 280.631 1165.935 279.762 1165.935 278.699 L 1165.935 255.301 C 1165.935 255.028 1165.993 254.782 1166.111 254.549 L 1183.516 264.634 L 1169.207 277.04 C 1168.778 277.412 1168.773 278.022 1169.192 278.401 C 1169.61 278.781 1170.297 278.787 1170.724 278.414 L 1185.385 265.71 L 1189.43 268.057 C 1189.794 268.266 1190.262 268.266 1190.627 268.057 L 1194.671 265.71 L 1209.258 278.401 C 1209.688 278.768 1210.37 278.762 1210.793 278.388 C 1211.216 278.012 1211.2 277.39 1210.777 277.027 L 1196.526 264.634 L 1198.322 263.584 C 1198.819 263.299 1198.964 262.69 1198.644 262.249 C 1198.312 261.808 1197.646 261.681 1197.14 261.964 L 1194.19 263.675 L 1190.029 266.086 L 1168.068 253.356 L 1211.99 253.356 L 1204.396 257.751 C 1203.9 258.045 1203.758 258.637 1204.075 259.086 C 1204.276 259.363 1204.624 259.53 1204.995 259.527 C 1205.199 259.527 1205.404 259.475 1205.594 259.371 L 1213.947 254.523 C 1214.064 254.759 1214.124 255.016 1214.121 255.275 L 1214.121 278.699 L 1214.121 278.699 Z " fill="rgb(63,146,174)"/><g id="Group"><g transform="matrix(1.382,0,0,1,1234.249,255.75)"><text transform="matrix(1,0,0,1,0,20.815)" style="font-family:&quot;Quando&quot;;font-weight:400;font-size:21px;font-style:normal;fill:#2E2E2E;stroke:none;">subarna090@gmail.com</text></g></g></g></g><g id="Group"><g id="Group"><path d=" M 1185.86 359.278 C 1186.717 359.277 1187.504 359.587 1187.913 360.084 C 1188.32 360.582 1188.283 361.187 1187.815 361.661 C 1188.398 361.359 1188.779 360.889 1188.779 360.352 C 1188.779 359.429 1187.638 358.674 1186.242 358.674 C 1184.926 358.68 1183.834 359.35 1183.729 360.218 C 1184.083 359.646 1184.926 359.274 1185.86 359.278 L 1185.86 359.278 Z  M 1200.425 353.706 L 1200.425 354.998 L 1201.517 354.998 L 1201.517 326.047 L 1170.941 326.047 L 1170.941 327.306 L 1200.425 327.306 L 1200.425 353.706 L 1200.425 353.706 Z  M 1166.628 323.58 L 1166.628 359.748 C 1167.464 361.359 1169.774 362.517 1172.514 362.517 L 1183.983 362.517 C 1182.553 361.868 1181.927 360.679 1182.438 359.582 C 1182.951 358.486 1184.481 357.737 1186.215 357.734 C 1187.951 357.737 1189.481 358.486 1189.994 359.582 C 1190.506 360.679 1189.88 361.868 1188.449 362.517 L 1202.125 362.517 C 1202.938 362.517 1203.699 362.417 1204.41 362.232 L 1204.41 325.175 C 1204.41 322.909 1201.618 321.063 1198.193 321.063 L 1168.53 321.063 C 1167.388 321.65 1166.628 322.556 1166.628 323.58 Z  M 1202.963 325.091 L 1202.963 355.955 L 1200.425 355.955 L 1200.425 357.214 L 1168.404 357.214 L 1168.404 327.306 L 1169.494 327.306 L 1169.494 325.091 L 1202.963 325.091 Z  M 1186.215 321.163 C 1187.459 321.163 1188.474 321.835 1188.474 322.657 C 1188.474 323.48 1187.459 324.151 1186.215 324.151 C 1184.973 324.151 1183.958 323.48 1183.958 322.657 C 1183.958 321.835 1184.973 321.163 1186.215 321.163 Z  M 1169.469 322.187 C 1170.307 322.187 1170.991 322.64 1170.991 323.194 C 1170.991 323.748 1170.307 324.201 1169.469 324.201 C 1168.632 324.201 1167.946 323.748 1167.946 323.194 C 1167.946 322.64 1168.632 322.187 1169.469 322.187 Z  M 1186.215 323.211 C 1186.673 323.211 1187.053 322.959 1187.053 322.657 C 1187.053 322.355 1186.673 322.103 1186.215 322.103 C 1185.759 322.103 1185.379 322.355 1185.379 322.657 C 1185.404 322.959 1185.759 323.211 1186.215 323.211 Z " fill="rgb(87,198,209)"/><path d=" M 1204.41 362.232 C 1203.699 362.417 1202.938 362.517 1202.125 362.517 L 1188.449 362.517 C 1187.815 362.803 1187.053 362.97 1186.215 362.97 C 1185.379 362.97 1184.618 362.803 1183.983 362.517 L 1172.514 362.517 C 1169.798 362.517 1167.49 361.359 1166.628 359.748 L 1166.628 361.443 C 1166.628 363.189 1168.784 364.615 1171.422 364.615 L 1201.035 364.615 C 1202.304 364.615 1203.47 364.28 1204.308 363.742 C 1204.359 363.508 1204.41 363.273 1204.41 363.038 L 1204.41 362.232 L 1204.41 362.232 Z  M 1186.215 362.031 C 1186.8 362.031 1187.358 361.896 1187.79 361.661 C 1188.043 361.426 1188.17 361.124 1188.17 360.822 C 1188.163 360.094 1187.386 359.468 1186.308 359.322 C 1185.229 359.176 1184.142 359.55 1183.704 360.218 L 1183.704 360.352 C 1183.704 361.275 1184.821 362.031 1186.215 362.031 L 1186.215 362.031 Z " fill="rgb(64,137,137)"/><path d=" M 1169.494 332.257 L 1169.494 327.306 L 1169.038 327.306 C 1168.911 328.984 1169.063 330.629 1169.494 332.257 Z  M 1168.404 327.306 L 1168.404 357.214 L 1200.425 357.214 L 1168.404 357.214 L 1168.404 327.306 Z  M 1181.395 347.731 C 1187.053 351.625 1193.6 353.37 1200.425 353.706 L 1200.425 327.306 L 1170.941 327.306 L 1170.941 336.033 C 1173.073 340.296 1176.828 344.274 1181.395 347.731 L 1181.395 347.731 Z " fill="rgb(159,217,221)"/><path d=" M 1169.469 322.187 C 1170.307 322.187 1170.991 322.64 1170.991 323.194 C 1170.991 323.748 1170.307 324.201 1169.469 324.201 C 1168.632 324.201 1167.946 323.748 1167.946 323.194 C 1167.946 322.64 1168.632 322.187 1169.469 322.187 Z  M 1200.425 355.955 L 1200.425 357.214 L 1200.425 355.955 Z  M 1168.404 327.306 L 1169.038 327.306 L 1168.404 327.306 Z  M 1200.425 353.706 L 1200.425 354.998 L 1200.425 353.706 Z  M 1181.395 347.731 C 1176.828 344.274 1173.073 340.28 1170.941 336.033 L 1170.941 354.998 L 1200.451 354.998 L 1200.451 353.706 C 1193.6 353.37 1187.079 351.625 1181.395 347.731 Z  M 1169.494 355.955 L 1169.494 332.257 C 1169.063 330.629 1168.911 328.984 1169.038 327.306 L 1168.404 327.306 L 1168.404 357.214 L 1200.425 357.214 L 1200.425 355.955 L 1169.494 355.955 L 1169.494 355.955 Z " fill="rgb(194,230,234)"/><path d=" M 1171.422 366.512 L 1201.035 366.512 C 1205.272 366.512 1208.697 364.229 1208.697 361.443 L 1208.697 323.58 C 1208.697 320.777 1205.246 318.512 1201.035 318.512 L 1171.422 318.512 C 1167.185 318.512 1163.76 320.794 1163.76 323.58 L 1163.76 361.443 C 1163.76 364.246 1167.185 366.512 1171.422 366.512 L 1171.422 366.512 Z  M 1171.422 320.425 L 1201.035 320.425 C 1203.673 320.425 1205.831 321.852 1205.831 323.597 L 1205.831 361.46 C 1205.831 362.366 1205.246 363.172 1204.334 363.759 C 1203.47 364.296 1202.328 364.632 1201.06 364.632 L 1171.422 364.632 C 1168.784 364.632 1166.628 363.205 1166.628 361.46 L 1166.628 323.58 C 1166.642 321.835 1168.784 320.425 1171.422 320.425 L 1171.422 320.425 Z  M 1202.963 355.955 L 1202.963 325.091 L 1169.494 325.091 L 1169.494 355.955 L 1202.963 355.955 Z  M 1170.941 354.998 L 1170.941 326.047 L 1201.542 326.047 L 1201.542 354.998 L 1170.941 354.998 Z  M 1186.215 357.734 C 1184.481 357.737 1182.951 358.486 1182.438 359.582 C 1181.927 360.679 1182.553 361.868 1183.983 362.517 C 1184.618 362.803 1185.379 362.97 1186.215 362.97 C 1187.267 362.974 1188.278 362.699 1189.02 362.207 C 1189.763 361.715 1190.179 361.048 1190.174 360.352 C 1190.2 358.909 1188.424 357.734 1186.215 357.734 L 1186.215 357.734 Z  M 1187.79 361.661 C 1187.358 361.88 1186.825 362.031 1186.215 362.031 C 1184.821 362.031 1183.679 361.275 1183.679 360.352 L 1183.679 360.218 C 1183.784 359.35 1184.875 358.68 1186.191 358.674 C 1187.587 358.674 1188.728 359.429 1188.728 360.352 C 1188.753 360.889 1188.373 361.359 1187.79 361.661 Z  M 1186.215 324.168 C 1187.459 324.168 1188.474 323.496 1188.474 322.674 C 1188.474 321.852 1187.459 321.18 1186.215 321.18 C 1184.973 321.18 1183.958 321.852 1183.958 322.674 C 1183.958 323.496 1184.973 324.168 1186.215 324.168 Z  M 1186.215 322.12 C 1186.673 322.12 1187.053 322.372 1187.053 322.674 C 1187.053 322.976 1186.673 323.228 1186.215 323.228 C 1185.759 323.228 1185.379 322.976 1185.379 322.674 C 1185.404 322.355 1185.759 322.12 1186.215 322.12 Z " fill="rgb(0,0,0)"/></g><g id="Group"><g transform="matrix(1.382,0,0,1,1228.029,330.012)"><text transform="matrix(1,0,0,1,0,20.815)" style="font-family:&quot;Quando&quot;;font-weight:400;font-size:21px;font-style:normal;fill:#2E2E2E;stroke:none;">+91-9972136850</text></g></g></g><g id="website"><path d=" M 1198.97 436.936 C 1198.514 436.936 1198.076 436.767 1197.856 436.474 C 1197.702 436.277 1197.673 436.047 1197.774 435.835 C 1197.877 435.623 1198.099 435.448 1198.396 435.347 C 1198.581 435.29 1198.75 435.223 1198.935 435.155 C 1199.546 434.934 1200.309 435.085 1200.641 435.493 C 1200.971 435.901 1200.744 436.411 1200.134 436.632 C 1199.932 436.699 1199.745 436.778 1199.543 436.846 C 1199.358 436.902 1199.155 436.936 1198.97 436.936 Z  M 1213.871 414.696 L 1213.821 414.561 C 1210.327 406.726 1199.459 401 1186.616 401 C 1173.773 401 1162.906 406.726 1159.413 414.549 C 1159.395 414.594 1159.362 414.639 1159.345 414.696 C 1158.603 416.407 1158.229 418.179 1158.231 419.96 C 1158.231 430.409 1170.955 438.92 1186.616 438.92 C 1188.524 438.92 1190.448 438.796 1192.304 438.537 C 1192.756 438.473 1193.121 438.249 1193.255 437.953 C 1193.389 437.658 1193.27 437.337 1192.945 437.116 C 1192.929 437.082 1192.911 437.049 1192.894 437.004 C 1192.658 436.632 1192.051 436.44 1191.494 436.519 C 1191.562 436.44 1191.628 436.384 1191.696 436.305 C 1192.034 435.899 1191.831 435.392 1191.223 435.155 C 1190.616 434.929 1189.856 435.065 1189.502 435.471 C 1188.54 436.609 1187.511 437.229 1186.616 437.229 C 1184.254 437.229 1181.149 433.036 1180.001 425.889 L 1184.271 425.889 C 1184.963 425.889 1185.537 425.517 1185.537 425.044 C 1185.537 424.57 1184.98 424.198 1184.271 424.198 L 1179.748 424.198 C 1179.596 422.868 1179.512 421.448 1179.512 419.949 C 1179.512 418.438 1179.596 417.018 1179.748 415.676 L 1193.434 415.676 C 1193.72 418.269 1193.75 420.871 1193.519 423.466 C 1193.468 423.928 1194.008 424.322 1194.7 424.356 L 1194.785 424.356 C 1195.443 424.356 1196 424.018 1196.033 423.567 C 1196.135 422.383 1196.201 421.166 1196.201 419.949 C 1196.201 418.495 1196.117 417.063 1195.965 415.676 L 1203.003 415.676 C 1203.34 417.04 1203.525 418.472 1203.525 419.949 C 1203.525 421.403 1203.324 422.823 1202.986 424.198 L 1199.932 424.198 C 1199.239 424.198 1198.666 424.57 1198.666 425.044 C 1198.666 425.517 1199.223 425.889 1199.932 425.889 L 1202.479 425.889 C 1202.378 426.171 1202.294 426.464 1202.176 426.735 C 1201.99 427.185 1202.378 427.648 1203.054 427.772 C 1203.729 427.896 1204.421 427.636 1204.606 427.185 C 1204.791 426.757 1204.943 426.317 1205.095 425.878 L 1210.935 425.878 C 1209.652 428.234 1207.593 430.387 1204.843 432.213 C 1204.353 432.54 1204.353 433.07 1204.843 433.396 C 1205.332 433.723 1206.125 433.723 1206.614 433.396 C 1212.01 429.847 1215.04 424.996 1215.018 419.937 C 1214.985 418.134 1214.596 416.375 1213.871 414.696 Z  M 1210.884 414.008 L 1205.062 414.008 C 1203.712 410.04 1201.046 406.636 1197.568 404.314 C 1203.712 406.242 1208.538 409.736 1210.884 414.008 Z  M 1181.739 403.424 C 1179.613 405.813 1178.162 409.725 1177.469 414.019 L 1170.719 414.019 C 1172.542 408.947 1176.643 404.979 1181.739 403.424 Z  M 1175.648 404.325 C 1172.17 406.647 1169.521 410.04 1168.154 414.019 L 1162.316 414.019 C 1164.678 409.736 1169.504 406.242 1175.648 404.325 Z  M 1160.745 419.96 C 1160.745 418.483 1161.033 417.052 1161.555 415.688 L 1167.682 415.688 C 1167.362 417.063 1167.175 418.495 1167.175 419.96 C 1167.175 421.425 1167.344 422.846 1167.682 424.21 L 1161.555 424.21 C 1161.016 422.857 1160.745 421.437 1160.745 419.96 Z  M 1162.316 425.9 L 1168.154 425.9 C 1169.504 429.88 1172.17 433.284 1175.648 435.606 C 1169.467 433.666 1164.678 430.18 1162.316 425.9 L 1162.316 425.9 Z  M 1181.739 436.508 C 1176.643 434.941 1172.542 430.973 1170.719 425.9 L 1177.487 425.9 C 1178.162 430.206 1179.596 434.118 1181.739 436.508 Z  M 1177.251 424.221 L 1170.213 424.221 C 1169.512 421.399 1169.512 418.52 1170.213 415.699 L 1177.251 415.699 C 1177.099 417.108 1177.015 418.551 1177.015 419.971 C 1177.015 421.38 1177.082 422.812 1177.251 424.221 L 1177.251 424.221 Z  M 1195.747 414.008 C 1195.291 411.1 1194.497 408.44 1193.434 406.321 C 1193.215 405.882 1192.506 405.644 1191.848 405.791 C 1191.191 405.937 1190.836 406.411 1191.054 406.85 C 1192.051 408.823 1192.793 411.292 1193.231 413.997 L 1180.001 413.997 C 1181.165 406.862 1184.254 402.668 1186.616 402.668 C 1187.578 402.668 1188.709 403.401 1189.722 404.697 C 1190.043 405.103 1190.801 405.261 1191.426 405.047 C 1192.034 404.833 1192.287 404.325 1191.949 403.908 C 1191.814 403.728 1191.662 403.57 1191.51 403.401 C 1196.59 404.968 1200.674 408.924 1202.497 413.986 L 1195.747 413.986 L 1195.747 414.008 L 1195.747 414.008 Z  M 1205.552 424.221 C 1205.872 422.834 1206.041 421.414 1206.041 419.971 C 1206.041 418.506 1205.854 417.074 1205.534 415.699 L 1211.661 415.699 C 1212.183 417.063 1212.471 418.495 1212.471 419.971 C 1212.471 421.425 1212.2 422.846 1211.694 424.221 L 1205.552 424.221 Z  M 1200.707 431.931 L 1206.598 430.533 C 1207.087 430.421 1207.424 430.105 1207.441 429.767 C 1207.458 429.417 1207.137 429.102 1206.666 428.966 L 1188.844 424.086 C 1188.372 423.962 1187.831 424.029 1187.477 424.266 C 1187.122 424.503 1187.005 424.863 1187.206 425.179 L 1194.514 437.082 C 1194.707 437.398 1195.169 437.603 1195.679 437.601 L 1195.712 437.601 C 1196.236 437.59 1196.691 437.364 1196.861 437.037 L 1198.953 433.103 L 1205.079 437.195 C 1205.332 437.364 1205.652 437.443 1205.973 437.443 C 1206.294 437.443 1206.614 437.364 1206.867 437.195 C 1207.357 436.868 1207.357 436.339 1206.867 436.012 L 1200.707 431.931 L 1200.707 431.931 Z  M 1195.56 434.422 L 1190.649 426.408 L 1202.649 429.688 L 1197.991 430.793 C 1197.991 430.793 1197.973 430.793 1197.973 430.804 C 1197.907 430.815 1197.856 430.838 1197.788 430.86 C 1197.771 430.871 1197.755 430.871 1197.737 430.883 C 1197.671 430.917 1197.586 430.95 1197.535 430.995 C 1197.467 431.041 1197.416 431.086 1197.367 431.131 C 1197.35 431.142 1197.35 431.153 1197.332 431.165 C 1197.299 431.21 1197.266 431.243 1197.248 431.289 C 1197.248 431.289 1197.248 431.3 1197.231 431.3 L 1195.56 434.422 L 1195.56 434.422 Z " fill="rgb(65,143,170)"/><g id="Group"><g transform="matrix(1.382,0,0,1,1228.72,406.835)"><text transform="matrix(1,0,0,1,0,20.815)" style="font-family:&quot;Quando&quot;;font-weight:400;font-size:21px;font-style:normal;fill:#2E2E2E;stroke:none;">newzen.atwebpages.com</text></g></g></g><g id="github"><g id="Group"><path d=" M 1161.362 497.391 C 1161.362 487.321 1173.288 479.146 1187.976 479.146 C 1202.666 479.146 1214.591 487.321 1214.591 497.391 C 1214.591 507.46 1202.666 515.635 1187.976 515.635 C 1173.288 515.635 1161.362 507.46 1161.362 497.391 Z " fill="rgb(255,255,255)"/><path d=" M 1183.28 515.635 L 1183.28 509.732 C 1183.28 509.436 1183.631 509.196 1184.062 509.196 C 1184.495 509.196 1184.846 509.436 1184.846 509.732 L 1184.846 515.635 L 1187.976 515.635 L 1187.976 508.659 C 1187.976 508.363 1188.327 508.123 1188.76 508.123 C 1189.191 508.123 1189.542 508.363 1189.542 508.659 L 1189.542 515.635 L 1192.673 515.635 L 1192.673 509.732 C 1192.673 509.436 1193.024 509.196 1193.457 509.196 C 1193.888 509.196 1194.239 509.436 1194.239 509.732 L 1194.239 515.635 L 1196.991 515.635 C 1197.235 515.34 1197.369 514.962 1197.369 514.477 L 1197.369 510.246 C 1197.369 507.927 1194.38 504.633 1190.714 504.633 L 1186.803 504.633 C 1183.139 504.633 1180.149 507.928 1180.149 510.246 L 1180.149 514.477 C 1180.149 514.962 1180.283 515.34 1180.527 515.635 L 1183.28 515.635 Z " fill="rgb(69,90,100)"/><path d=" M 1204.599 499.748 C 1204.599 499.748 1207.596 499.396 1209.365 499.418 C 1211.155 499.43 1213.182 499.807 1213.182 499.807 M 1203.845 500.411 C 1203.845 500.411 1207.267 500.193 1208.678 500.223 C 1210.638 500.257 1212.736 500.67 1212.736 500.67 M 1173.204 499.633 C 1173.204 499.633 1168.965 499.37 1167.64 499.37 C 1166.313 499.37 1163.801 499.633 1162.593 499.87 M 1174.167 500.539 C 1174.167 500.539 1169.722 500.257 1167.7 500.423 C 1165.282 500.62 1163.17 501.488 1163.17 501.488" fill="none" vector-effect="non-scaling-stroke" stroke-width="0.974" stroke="rgb(69,90,100)" stroke-opacity="100" stroke-linejoin="round" stroke-linecap="round" stroke-miterlimit="10"/><path d=" M 1172.593 496.811 C 1172.593 492.072 1179.824 487.732 1188.76 487.732 C 1197.679 487.732 1204.925 492.07 1204.925 496.811 C 1204.925 501.554 1199.738 504.903 1188.76 504.903 C 1177.782 504.903 1172.593 501.554 1172.593 496.811 Z " fill="rgb(69,90,100)"/><path d=" M 1195.157 489.139 C 1195.157 489.139 1197.781 486.658 1202.624 486.658 C 1204.552 487.979 1203.227 491.766 1202.595 492.903 L 1195.157 489.139 Z  M 1182.346 489.14 C 1182.346 489.14 1179.719 486.659 1174.897 486.659 C 1172.969 487.982 1174.277 491.767 1174.905 492.904 L 1182.346 489.14 Z  M 1181.88 510.122 L 1177.512 510.122 C 1175.602 510.122 1173.912 509.549 1173.093 508.507 C 1172.174 507.349 1171.308 506.038 1169.047 504.956 C 1168.647 504.763 1168.877 504.485 1169.662 504.548 C 1170.427 504.602 1171.879 504.718 1172.99 505.715 C 1174.098 506.713 1175.308 507.859 1177.389 507.859 C 1179.449 507.859 1181.689 507.896 1182.818 506.873 L 1181.88 510.122 Z " fill="rgb(69,90,100)"/><path d=" M 1187.976 477 C 1171.544 477 1158.231 486.126 1158.231 497.391 C 1158.231 508.655 1171.544 517.781 1187.976 517.781 C 1204.409 517.781 1217.721 508.655 1217.721 497.391 C 1217.721 486.126 1204.409 477 1187.976 477 Z  M 1187.976 514.597 C 1174.14 514.597 1162.877 506.875 1162.877 497.391 C 1162.877 487.906 1174.14 480.184 1187.976 480.184 C 1201.813 480.184 1213.077 487.906 1213.077 497.391 C 1213.077 506.875 1201.813 514.597 1187.976 514.597 Z " fill="rgb(0,188,212)"/></g><g id="Group"><g transform="matrix(1.382,0,0,1,1230.794,484.266)"><text transform="matrix(1,0,0,1,0,20.815)" style="font-family:&quot;Quando&quot;;font-weight:400;font-size:21px;font-style:normal;fill:#2E2E2E;stroke:none;">github.com/subarna090</text></g></g></g></g></g></g></svg>