<?xml version="1.0" standalone="no"?><!-- Generator: Gravit.io --><svg xmlns="http://www.w3.org/2000/svg" xmlns:xlink="http://www.w3.org/1999/xlink" style="isolation:isolate" viewBox="0 0 1700 768" width="1700" height="768"><defs><clipPath id="_clipPath_0MXtnRpLlU1f4H7hrrAGzNjlaJ6VXeeb"><rect width="1700" height="768"/></clipPath></defs><g clip-path="url(#_clipPath_0MXtnRpLlU1f4H7hrrAGzNjlaJ6VXeeb)"><rect x="0" y="-16" width="1700" height="784" transform="matrix(1,0,0,1,0,0)" fill="rgb(235,235,235)"/><g transform="matrix(1,0,0,1,890,8.662)"><text transform="matrix(1,0,0,1,0,71.396)" style="font-family:&quot;Rammetto One&quot;;font-weight:400;font-size:60px;font-style:normal;fill:#171717;stroke:none;">WORK EXPERIENCE</text></g><g id="wipro"><rect x="90" y="550" width="1519" height="80" transform="matrix(1,0,0,1,0,0)" fill="rgb(135,188,202)" fill-opacity="0.95"/><g transform="matrix(1,0,0,1,127.5,566.5)"><text transform="matrix(1,0,0,1,1.71,32.755)" style="font-family:&quot;Radley&quot;;font-weight:400;font-size:34px;font-style:normal;fill:#ffffff;stroke:none;">WIPRO TECHNOLOGIES                                                                                                               (2013-2104)                                        </text></g></g><g id="ibm"><rect x="90" y="336" width="1519" height="80" transform="matrix(1,0,0,1,0,0)" fill="rgb(114,181,200)"/><g transform="matrix(1,0,0,1,126.5,352.5)"><text transform="matrix(1,0,0,1,0,32.755)" style="font-family:&quot;Radley&quot;;font-weight:400;font-size:34px;font-style:normal;fill:#ffffff;stroke:none;">IBM INDIA SOFTWARE LABS(ISL/SYSTEMS)                                                                 (2014-Present)</text></g></g><g id="wev dev"><rect x="90" y="100" width="1519" height="80" transform="matrix(1,0,0,1,0,0)" fill="rgb(71,160,184)"/><g transform="matrix(1,0,0,1,125,117)"><text transform="matrix(1,0,0,1,1.71,32.755)" style="font-family:&quot;Radley&quot;;font-weight:400;font-size:34px;font-style:normal;fill:#ffffff;stroke:none;">WEB DEVELOPMENT EXPERINCE                                                                                   (2015-Present)</text></g></g><g transform="matrix(1,0,0,1,129,182)"><text transform="matrix(1,0,0,1,1.518,26.975)" style="font-family:&quot;Radley&quot;;font-weight:400;font-size:28px;font-style:normal;fill:#000000;stroke:none;">I am a self taught web technology enthusiast who would love to explore and contribute to the web developer </text><text transform="matrix(1,0,0,1,1.518,62.357)" style="font-family:&quot;Radley&quot;;font-weight:400;font-size:28px;font-style:normal;fill:#000000;stroke:none;">community. I have working knowledge in creating static and dynamic webpages. Have good knowledge of DOM </text><text transform="matrix(1,0,0,1,1.518,97.74)" style="font-family:&quot;Radley&quot;;font-weight:400;font-size:28px;font-style:normal;fill:#000000;stroke:none;">manipulation. Have working knowledge of creating single page applications using Angular5. Have knowledge of </text><text transform="matrix(1,0,0,1,1.518,133.123)" style="font-family:&quot;Radley&quot;;font-weight:400;font-size:28px;font-style:normal;fill:#000000;stroke:none;">using APIs and performing AJAX calls to create user friendly applications.</text></g><g transform="matrix(1,0,0,1,129,427)"><text transform="matrix(1,0,0,1,1.408,26.975)" style="font-family:&quot;Radley&quot;;font-weight:400;font-size:28px;font-style:normal;fill:#000000;stroke:none;">Working in AIX Development Ztrans team as an SME to find and fix possible AIX source code issues/defects and </text><text transform="matrix(1,0,0,1,1.408,62.357)" style="font-family:&quot;Radley&quot;;font-weight:400;font-size:28px;font-style:normal;fill:#000000;stroke:none;">ensure customers enterprise software is reliable and available. Have immense knowledge in security modules like </text><text transform="matrix(1,0,0,1,1.408,97.74)" style="font-family:&quot;Radley&quot;;font-weight:400;font-size:28px;font-style:normal;fill:#000000;stroke:none;">LDAP,Kerberos,RBAC as well as Unix OS internals, library and base OS command.</text></g><g transform="matrix(1,0,0,1,129,634)"><text transform="matrix(1,0,0,1,0,26.975)" style="font-family:&quot;Radley&quot;;font-weight:400;font-size:28px;font-style:normal;fill:#000000;stroke:none;">Contributed to developing and maintaining SourceOne Archiving Family (Dell-EMC software).Created matching </text><text transform="matrix(1,0,0,1,0,62.357)" style="font-family:&quot;Radley&quot;;font-weight:400;font-size:28px;font-style:normal;fill:#000000;stroke:none;">archiving policies with business requirements.Resolved complicated issues of archiving failure.</text></g></g></svg>